<?xml version="1.0" encoding="UTF-8"?>
<svg viewBox="0 0 512 512" version="1.1" xmlns="http://www.w3.org/2000/svg" xmlns:xlink="http://www.w3.org/1999/xlink">
    <title>CodePen</title>
    <defs>
        <linearGradient x1="50%" y1="100%" x2="50%" y2="47.951645%" id="linearGradient-7">
            <stop stop-color="#9A9999" offset="0%"></stop>
            <stop stop-color="#403434" offset="100%"></stop>
        </linearGradient>
        <rect id="path-2" x="0" y="0" width="512" height="512" rx="116"></rect>
    </defs>
    <g id="CodePen" stroke="none" stroke-width="1" fill="none" fill-rule="evenodd">
        <g id="Bitmap">
            <mask id="mask-3" fill="white">
                <use xlink:href="#path-2"></use>
            </mask>
            <use id="Mask" fill="url(#linearGradient-7)" xlink:href="#path-2"></use>
            <g id="􀉆" mask="url(#mask-3)">
                <g transform="translate(95.000000, 96.000000)" id="Group">
                    <path d="M321.048585,109.896714 C319.76512,101.55419 310.459997,97.0620611 304.04267,92.890799 C292.491483,85.1900074 281.261162,77.8100821 269.709974,70.1092904 C242.436337,51.8199103 214.841834,33.5305302 187.568197,15.2411501 C181.15087,11.069888 174.733544,6.57775951 168.316218,2.40649738 C163.824089,-0.802165794 157.727629,-0.802165794 152.914635,2.40649738 C134.625254,14.5994175 116.015008,27.1132039 97.7256279,39.3061239 L16.8673158,93.2116653 C9.80825679,97.7037938 0.503133575,102.195922 0.182267257,111.821912 C-0.13859906,122.4105 0.182267257,133.319955 0.182267257,143.908544 L0.182267257,195.247154 C0.182267257,204.552278 -1.74293065,215.461732 6.92045993,221.237326 C27.4559043,235.355444 48.3122149,248.831829 69.1685256,262.629081 C94.837831,279.634996 120.507136,296.961777 146.176442,313.967692 C153.235501,318.780687 160.29456,323.914548 168.95795,318.138954 C176.337876,313.325959 183.396935,308.512965 190.77686,303.69997 C219.333962,284.768857 247.891065,265.516878 276.448167,246.585765 L308.213932,225.408588 C310.13913,224.125123 312.385194,222.841658 314.310392,221.237326 C318.802521,218.028663 320.727719,213.536534 320.727719,208.081807 L320.727719,119.84357 C321.048585,116.31404 321.369451,113.105377 321.048585,109.896714 C321.048585,109.575848 321.048585,110.538446 321.048585,109.896714 Z M174.412678,39.6269902 L282.544627,111.821912 L234.414679,144.22941 L174.412678,104.12112 L174.412678,39.6269902 Z M146.818174,39.6269902 L146.818174,103.800254 L87.1370394,143.908544 L38.6862254,111.821912 L146.818174,39.6269902 L146.818174,39.6269902 Z M27.7767706,137.491217 L62.1094666,160.593592 L27.7767706,183.695967 L27.7767706,137.491217 Z M146.818174,281.560194 L38.6862254,209.365272 L86.8161731,176.957774 L146.497308,217.066064 L146.497308,281.560194 L146.818174,281.560194 Z M160.615426,193.321956 L111.843746,160.593592 L160.615426,127.865228 L209.387106,160.593592 L160.615426,193.321956 Z M174.412678,281.560194 L174.412678,217.38693 L234.093813,177.278641 L282.223761,209.686139 L174.412678,281.560194 L174.412678,281.560194 Z M293.454082,183.695967 L259.121386,160.593592 L293.774948,137.491217 L293.454082,183.695967 L293.454082,183.695967 Z" id="Shape" fill="#F5F5F5" fill-rule="nonzero"></path>
                </g>
            </g>
        </g>
    </g>
</svg>